<svg width="77" height="38" viewBox="0 0 77 38" fill="none" xmlns="http://www.w3.org/2000/svg">
<path d="M0.5896 17.3915H8.13697C10.5427 17.3915 12.005 17.0006 13.0781 16.1517C14.1985 15.3028 14.7291 13.9624 14.7291 12.3204C14.7291 11.2369 14.4107 10.3098 13.9744 9.71781C13.5381 9.15932 13.0781 8.76837 12.5357 8.39976C12.8069 7.98648 13.1725 7.42798 13.5145 6.88066C14.0216 6.00941 14.34 5.23868 14.34 4.1552C14.34 2.7478 13.6796 1.53028 12.5828 0.815403C11.6158 0.189888 10.4012 0 8.52613 0H0.5896V17.3915ZM3.526 14.7554V9.87419H8.34924C9.46956 9.87419 10.1535 9.96355 10.7078 10.2875C11.4389 10.7678 11.7338 11.4156 11.7338 12.3204C11.7338 13.1246 11.5097 13.7278 10.979 14.1411C10.4484 14.5767 9.67003 14.7666 8.18414 14.7666H3.526V14.7554ZM3.526 7.2381V2.62493H8.2549C9.32804 2.62493 10.0828 2.66961 10.5663 2.94885C11.1205 3.25044 11.3446 3.73075 11.3446 4.42328C11.3446 5.09347 11.097 5.59612 10.755 6.17695C10.5309 6.52322 10.295 6.91417 10.071 7.2381H3.526Z" fill="#6F6F6F"/>
<path d="M19.7176 17.3915V4.17754L24.0338 13.9289H26.7343L31.0387 4.17754V17.3915H33.9397V0H30.0481L25.4135 10.4885L20.7672 0H16.8284V17.3915H19.7176Z" fill="#6F6F6F"/>
<path d="M42.7723 17.3915L45.8149 6.52322L48.8692 17.3915H52.7372L56.334 0H53.3623L50.5438 13.7613L47.4069 2.62493H44.2582L41.1214 13.7613L38.3029 0H35.2839L38.8807 17.3915H42.7723Z" fill="#6F6F6F"/>
<path d="M13.656 37.4192V28.2822H10.7314V35.1294C10.071 35.1964 8.8092 35.3416 7.61813 35.3416C5.55439 35.3416 4.35153 34.8613 3.70293 33.6103C3.17226 32.5938 2.99536 31.097 2.99536 29.0641C2.99536 27.0312 3.19584 25.4674 3.72652 24.4286C4.4105 23.0659 5.46005 22.5409 7.57096 22.5409C8.23135 22.5409 8.96251 22.6302 9.71724 22.7755C10.8611 22.9877 12.0522 23.2334 13.0546 23.468V20.7425C12.2999 20.5526 11.2503 20.3292 10.13 20.117C9.23374 19.9606 8.23135 19.8154 7.27614 19.8154C3.89161 19.8154 2.33497 21.0106 1.309 22.6526C0.34199 24.2052 0 26.2828 0 29.12C0 31.8342 0.365576 33.8225 1.19107 35.1852C2.19346 36.8272 3.65576 38 7.1818 38C9.3045 38 11.9107 37.6984 13.656 37.4192Z" fill="#6F6F6F"/>
<path d="M18.7624 37.5979V31.2534H23.0668L27.0055 37.5979H30.4372L26.2272 30.8401C26.6871 30.3821 27.4419 29.5667 28.0315 28.9077C28.9867 27.8019 29.5646 26.7184 29.5646 25.1546C29.5646 23.6355 28.9749 22.2281 27.9372 21.3904C26.7697 20.4409 25.4017 20.2175 23.1611 20.2175H15.8142V37.6091H18.7624V37.5979ZM18.7624 28.5838V22.8871H22.8545C24.4111 22.8871 25.1895 22.9988 25.7319 23.3451C26.3687 23.7584 26.581 24.3616 26.581 25.1658C26.581 26.0929 26.1683 26.7519 25.6258 27.3998C25.3074 27.7684 24.8946 28.2263 24.5527 28.5726H18.7624V28.5838Z" fill="#6F6F6F"/>
<path d="M38.4326 19.8266C34.824 19.8266 33.1495 20.9324 32.0056 22.7755C31.0504 24.2946 30.7673 26.6291 30.7673 28.9524C30.7673 31.6555 31.2037 33.9118 32.1589 35.3639C33.2792 37.0729 34.8594 37.9889 38.4444 37.9889C41.5577 37.9889 43.2205 37.1846 44.5059 35.4086C45.6026 33.9342 46.0861 31.5773 46.0861 28.9524C46.0861 26.4615 45.697 23.993 44.5059 22.3845C43.2323 20.6532 41.5695 19.8266 38.4326 19.8266ZM38.4326 22.4962C40.0836 22.4962 41.3808 22.8872 42.1592 24.1829C42.8667 25.311 43.079 27.087 43.079 28.9524C43.079 30.8848 42.8549 32.8507 41.9115 34.0012C41.0624 35.04 39.8949 35.3193 38.4326 35.3193C36.7816 35.3193 35.3901 35.0623 34.5882 33.7555C33.9514 32.672 33.7627 30.8066 33.7627 28.9636C33.7627 27.0982 33.9278 25.2775 34.5646 24.194C35.3665 22.7978 36.7816 22.4962 38.4326 22.4962Z" fill="#6F6F6F"/>
<path d="M47.9612 20.2175V30.9183C47.9612 33.3868 48.256 35.1629 49.4942 36.4027C50.7089 37.6761 52.3127 37.9888 54.801 37.9888C57.136 37.9888 58.7752 37.6202 60.0134 36.4474C61.3224 35.2075 61.6172 33.5209 61.6172 30.9183V20.2175H58.669V30.9853C58.669 32.806 58.5511 33.8895 57.7492 34.6044C57.0652 35.1852 56.0156 35.3192 54.801 35.3192C53.5627 35.3192 52.4896 35.1852 51.8292 34.582C51.0273 33.8448 50.9094 32.7613 50.9094 30.9853V20.2175H47.9612Z" fill="#6F6F6F"/>
<path d="M66.7116 37.5979V31.3763C68.6338 31.3763 70.2612 31.3763 71.2872 31.3092C72.9972 31.2199 74.3769 30.8736 75.4029 29.8795C76.476 28.8184 76.8888 27.3216 76.8888 25.6573C76.8888 24.0711 76.4289 22.5855 75.4501 21.6249C74.4241 20.6308 73.1151 20.2175 71.0867 20.2175H63.7634V37.6091H66.7116V37.5979ZM66.7116 28.7067V22.8983H70.7801C71.9476 22.8983 72.6552 23.01 73.1623 23.5015C73.6694 23.9818 73.8934 24.719 73.8934 25.6684C73.8934 26.5955 73.7755 27.3328 73.2802 27.8354C72.7967 28.3939 72.0891 28.5726 70.9924 28.6396C69.8721 28.7067 68.339 28.7067 66.7116 28.7067Z" fill="#6F6F6F"/>
</svg>
